Coordinates
version=1
nRows=14
nColumns=40
inDegrees=yes

Units are S.I. units (second, meters, Newtons, ...)
Angles are in degrees.

endheader
time	pelvis_tilt	pelvis_list	pelvis_rotation	pelvis_tx	pelvis_ty	pelvis_tz	hip_flexion_r	hip_adduction_r	hip_rotation_r	knee_angle_r	knee_angle_r_beta	ankle_angle_r	subtalar_angle_r	mtp_angle_r	hip_flexion_l	hip_adduction_l	hip_rotation_l	knee_angle_l	knee_angle_l_beta	ankle_angle_l	subtalar_angle_l	mtp_angle_l	lumbar_extension	lumbar_bending	lumbar_rotation	arm_flex_r	arm_add_r	arm_rot_r	elbow_flex_r	pro_sup_r	wrist_flex_r	wrist_dev_r	arm_flex_l	arm_add_l	arm_rot_l	elbow_flex_l	pro_sup_l	wrist_flex_l	wrist_dev_l
     42.48464286	     -5.90884909	     -4.25018532	    -10.08450061	      0.94851099	      0.92774515	      0.38673275	     26.83643506	     -0.91765321	     -6.62157659	     17.71503572	     17.71503572	      4.79310691	      6.55726794	      0.71548515	      8.33596617	     -2.98331916	    -11.61443762	     19.22439309	     19.22439309	     18.39309626	    -12.83763024	      3.05336724	    -11.10269938	      8.29074050	      1.22228625	    -14.56924619	    -11.23170806	    -20.04088955	     24.10683432	     46.98587281	      0.00000000	      0.00000000	     36.47070890	    -22.62651162	     -0.51609269	     59.59338270	     47.05113105	      0.00000000	      0.00000000
     42.50428571	     -6.02095125	     -3.86973287	    -10.42610313	      0.94842147	      0.92642145	      0.38909925	     26.54814761	     -1.00181558	     -7.97925261	     14.79454400	     14.79454400	      4.94956611	     10.48703415	      3.69104359	      7.80606541	     -2.69751593	    -12.23135438	     18.78765870	     18.78765870	     18.47510878	    -12.40584057	      2.10298436	    -10.94855306	      7.92789134	      1.36215227	    -15.27589906	    -11.02130927	    -19.82599694	     24.43696414	     46.93703602	      0.00000000	      0.00000000	     37.65222069	    -23.09090211	     -1.16067780	     60.61669164	     47.13939718	      0.00000000	      0.00000000
     42.52392857	     -6.12078476	     -3.58063307	    -10.68390397	      0.94851346	      0.92496100	      0.39176002	     26.20215286	     -0.83117108	     -8.34973079	     12.34896464	     12.34896464	      4.42891650	     12.15285173	      4.94430599	      7.41741716	     -2.51322973	    -12.52903103	     18.68332234	     18.68332234	     18.73604619	    -12.35561743	      1.73376111	    -10.78727605	      7.65429137	      1.39074910	    -15.58434925	    -10.79786367	    -19.71987384	     24.44086982	     46.92151481	      0.00000000	      0.00000000	     38.87315823	    -23.53098528	     -1.52290359	     61.26412508	     47.19061953	      0.00000000	      0.00000000
     42.54357143	     -6.19574301	     -3.26311087	    -10.86407604	      0.94895956	      0.92336660	      0.39449540	     26.07112584	     -0.82454320	     -8.84436968	     10.98585644	     10.98585644	      4.08300596	     13.41893707	      5.64705287	      7.02092374	     -2.30373845	    -12.81452544	     18.63448145	     18.63448145	     19.06762492	    -12.20267794	      1.32917617	    -10.59843803	      7.35534138	      1.48894797	    -15.75353787	    -10.61791986	    -19.61081274	     24.45543149	     46.90720098	      0.00000000	      0.00000000	     39.99431106	    -23.82539099	     -1.91213966	     61.92612312	     47.24223805	      0.00000000	      0.00000000
     42.56321429	     -6.21839031	     -3.09015769	    -10.98014303	      0.94986069	      0.92193355	      0.39741269	     25.95708314	     -0.76805278	     -9.38030154	     10.39944112	     10.39944112	      3.74055167	     14.19280274	      5.74861680	      6.50357396	     -2.24752212	    -13.06170946	     18.56666850	     18.56666850	     19.40353779	    -11.99005030	      0.89841327	    -10.46954393	      7.26879802	      1.65738672	    -15.91035250	    -10.58458649	    -19.46694077	     24.45127218	     46.89119028	      0.00000000	      0.00000000	     40.91902438	    -23.95855866	     -2.44104060	     62.65184872	     47.30416978	      0.00000000	      0.00000000
     42.58285714	     -6.33046851	     -2.94767887	    -11.03718069	      0.95107065	      0.92048913	      0.40046478	     26.01181498	     -0.70643524	     -9.59612282	     10.44741036	     10.44741036	      3.54781966	     14.07627547	      5.70347378	      6.08862612	     -2.21702639	    -13.05927837	     18.54306116	     18.54306116	     19.79226586	    -12.04008048	      0.74322162	    -10.14407384	      7.26812700	      1.69579068	    -15.86974137	    -10.63497412	    -19.45420277	     24.46840371	     46.88970190	      0.00000000	      0.00000000	     41.49556288	    -24.18295027	     -2.60432900	     62.89734848	     47.32506307	      0.00000000	      0.00000000
     42.60250000	     -6.22399015	     -2.76795986	    -10.98824123	      0.95284064	      0.91923851	      0.40368860	     25.79288707	     -0.73549320	     -9.51681264	     10.67201346	     10.67201346	      1.47403724	     13.15420125	     -0.67709593	      5.34852915	     -2.15528745	    -13.32834951	     18.39842826	     18.39842826	     20.07271564	    -11.52091786	      0.17807249	    -10.12040669	      7.15713661	      1.52271184	    -15.56801710	    -10.81154446	    -18.70843020	     24.40692955	     46.82426997	      0.00000000	      0.00000000	     41.72250167	    -24.02518370	     -4.95967022	     64.65780597	     47.54028339	      0.00000000	      0.00000000
     42.62214286	     -6.13428592	     -2.72453915	    -10.90577772	      0.95489080	      0.91841769	      0.40706280	     25.79907477	     -0.73824476	     -9.51258515	     11.78702637	     11.78702637	      1.47760754	     12.25439738	     -1.41558781	      4.54706690	     -2.17781744	    -13.24018380	     18.16051680	     18.16051680	     20.36547202	    -11.45258576	      0.19183149	    -10.01435321	      7.23796960	      1.63585641	    -15.38288746	    -10.98043818	    -18.64208071	     24.39797819	     46.82107302	      0.00000000	      0.00000000	     42.20731165	    -24.09773846	     -5.04920554	     65.00882324	     47.55687535	      0.00000000	      0.00000000
     42.64178571	     -6.07314421	     -2.59653188	    -10.76217500	      0.95730446	      0.91758037	      0.41070657	     25.71112883	     -0.71001716	     -8.81669232	     12.68034570	     12.68034570	     -0.00502529	      9.99406164	     -6.52774780	      3.73211967	     -2.14010429	    -13.20723927	     17.85545065	     17.85545065	     20.76896827	    -11.15258096	      0.57152041	     -9.82261158	      7.22297566	      1.46222711	    -14.91334912	    -11.27751409	    -18.13965299	     24.12684753	     46.79311022	      0.00000000	      0.00000000	     42.05466502	    -24.29027489	     -5.89449212	     66.21028190	     47.64120806	      0.00000000	      0.00000000
     42.66142857	     -5.94706063	     -2.57700519	    -10.58465285	      0.95998782	      0.91720401	      0.41449060	     25.75016995	     -0.69727051	     -8.47747489	     14.26479540	     14.26479540	      0.28385292	      8.55334843	     -7.10131740	      2.78071519	     -2.20921900	    -13.13749297	     17.47636419	     17.47636419	     20.95301395	    -10.93859219	      0.69859445	     -9.72683581	      7.33384887	      1.60881674	    -14.67888701	    -11.57184424	    -18.13203088	     24.17988039	     46.79350983	      0.00000000	      0.00000000	     42.25032979	    -24.25305446	     -6.04015888	     66.55801338	     47.65912961	      0.00000000	      0.00000000
     42.68107143	     -5.88087075	     -2.82526758	    -10.23748065	      0.96288870	      0.91715856	      0.41840005	     25.49195690	     -0.43976392	     -8.54060695	     15.36523268	     15.36523268	      0.53643979	      7.66223053	     -7.43336999	      1.91379340	     -2.62101477	    -12.87302117	     17.21314694	     17.21314694	     21.07879243	    -10.75437754	      0.80174189	     -9.55652705	      7.75677398	      1.64332932	    -14.39697085	    -11.98020878	    -18.16552092	     24.27793993	     46.79647732	      0.00000000	      0.00000000	     42.27879834	    -24.10632118	     -6.06522535	     66.73952032	     47.66407419	      0.00000000	      0.00000000
     42.70071429	     -5.64848511	     -2.65227640	    -10.06434718	      0.96584540	      0.91727768	      0.42269772	     25.55723078	     -0.44576252	     -7.43661484	     17.19406777	     17.19406777	      1.13220781	      5.31462280	     -7.89988546	      0.81917873	     -2.56103750	    -12.93246787	     16.74920082	     16.74920082	     21.15258192	    -10.31096746	      1.16808292	     -9.56191815	      7.59334612	      1.73119676	    -14.10693194	    -12.22595410	    -18.23029962	     24.39714301	     46.80015302	      0.00000000	      0.00000000	     42.11753538	    -24.20159484	     -6.41258978	     67.29714957	     47.69688862	      0.00000000	      0.00000000
     42.72035714	     -5.52887057	     -2.79325139	     -9.72098820	      0.96886808	      0.91770292	      0.42711398	     25.24880025	     -0.09360142	     -6.69210139	     18.23465697	     18.23465697	      1.65189994	      3.44057844	     -7.90316749	     -0.01501859	     -2.95109056	    -12.85188838	     16.63766075	     16.63766075	     21.28314592	     -9.88889256	      1.65025653	     -9.46190402	      7.81846006	      1.60502437	    -13.69977479	    -12.57571952	    -18.35869542	     24.55133167	     46.80865589	      0.00000000	      0.00000000	     41.62007125	    -24.26049510	     -6.81130804	     68.00878412	     47.73333722	      0.00000000	      0.00000000
     42.74000000	     -5.35365749	     -2.94058051	     -9.33617598	      0.97192469	      0.91842251	      0.43156741	     24.79551184	      0.19223707	     -6.40245142	     19.12214031	     19.12214031	      2.32513344	      2.34434413	     -7.79470900	     -0.79233675	     -3.39291142	    -12.77810914	     16.72740365	     16.72740365	     21.35030383	     -9.45160744	      2.05691716	     -9.43459058	      8.00229700	      1.49246383	    -13.23941320	    -12.93438994	    -18.48181564	     24.68653473	     46.81787703	      0.00000000	      0.00000000	     41.11173193	    -24.27575107	     -7.07147502	     68.49828832	     47.75627768	      0.00000000	      0.00000000
